<svg xmlns="http://www.w3.org/2000/svg" version="1.1" xmlns:xlink="http://www.w3.org/1999/xlink" xmlns:svgjs="http://svgjs.dev/svgjs" width="1000" height="1000" viewBox="0 0 1000 1000"><rect width="1000" height="1000" fill="#ffffff"></rect><g transform="matrix(0.7,0,0,0.7,149.5757794306801,438.08501931791307)"><svg viewBox="0 0 396 70" data-background-color="#ffffff" preserveAspectRatio="xMidYMid meet" height="176" width="1000" xmlns="http://www.w3.org/2000/svg" xmlns:xlink="http://www.w3.org/1999/xlink"><g id="tight-bounds" transform="matrix(1,0,0,1,0.2399876957942979,2.303625135090442)"><svg viewBox="0 0 395.52 67.03227960318384" height="67.03227960318384" width="395.52"><g><svg viewBox="0 0 493.11633295365846 83.57279507343833" height="67.03227960318384" width="395.52"><g transform="matrix(1,0,0,1,97.59633295365845,11.550219869049727)"><svg viewBox="0 0 395.52 60.472355335338875" height="60.472355335338875" width="395.52"><g id="textblocktransform"><svg viewBox="0 0 395.52 60.472355335338875" height="60.472355335338875" width="395.52" id="textblock"><g><svg viewBox="0 0 395.52 60.472355335338875" height="60.472355335338875" width="395.52"><g transform="matrix(1,0,0,1,0,0)"><svg width="395.52" viewBox="0.20000000298023224 -36.5 282.53997802734375 43.20000076293945" height="60.472355335338875" data-palette-color="#1ebbd7"><path d="M19.75 5.95L19.75 5.95 11.65 5.95Q10.45 5.95 9.9 5.4 9.35 4.85 9.35 3.65L9.35 3.65 9.35-20.4 2.5-20.4Q1.3-20.4 0.75-20.95 0.2-21.5 0.2-22.7L0.2-22.7 0.2-28.75Q0.2-29.4 0.38-29.85 0.55-30.3 0.9-30.6L0.9-30.6 7.35-36.05Q7.6-36.25 8.03-36.38 8.45-36.5 8.95-36.5L8.95-36.5 35.35-36.5Q36.55-36.5 37.1-35.95 37.65-35.4 37.65-34.2L37.65-34.2 37.65-28.15Q37.65-27.5 37.48-27.05 37.3-26.6 36.95-26.3L36.95-26.3 30.45-20.9Q30.25-20.7 29.83-20.55 29.4-20.4 28.9-20.4L28.9-20.4 28.5-20.4 28.5-1.8Q28.5-1.15 28.33-0.7 28.15-0.25 27.8 0.05L27.8 0.05 21.3 5.45Q21.1 5.65 20.68 5.8 20.25 5.95 19.75 5.95ZM18.1 0L26.2 0Q27.15 0 27.58-0.43 28-0.85 28-1.8L28-1.8 28-26.35 35.35-26.35Q36.3-26.35 36.73-26.78 37.15-27.2 37.15-28.15L37.15-28.15 37.15-34.2Q37.15-35.15 36.73-35.58 36.3-36 35.35-36L35.35-36 8.95-36Q8-36 7.58-35.58 7.15-35.15 7.15-34.2L7.15-34.2 7.15-28.15Q7.15-27.2 7.58-26.78 8-26.35 8.95-26.35L8.95-26.35 16.3-26.35 16.3-1.8Q16.3-0.85 16.73-0.43 17.15 0 18.1 0L18.1 0ZM22.4-4.5L21.9-4.5 21.9-31 11.65-31 11.65-31.5 32.65-31.5 32.65-31 22.4-31 22.4-4.5ZM50.05-15.15L50.05-15.15 50.05-13.6 69.55-13.6 69.55-15.15Q69.55-16.5 69.32-17.65 69.1-18.8 68.75-19.8L68.75-19.8 65.3-27.95Q64.75-29.25 64.15-30.13 63.55-31 62.15-31L62.15-31 57.25-31Q55.75-31 55.15-30.13 54.55-29.25 54.05-28L54.05-28 50.85-19.8Q50.5-18.8 50.27-17.65 50.05-16.5 50.05-15.15ZM55.7-17.9L58.05-25.5Q58.25-25.95 58.47-26.15 58.7-26.35 59-26.35L59-26.35 60.25-26.35Q60.55-26.35 60.77-26.15 61-25.95 61.2-25.5L61.2-25.5 63.55-17.9 55.7-17.9ZM70.05-4.5L69.55-4.5 69.55-13.1 50.05-13.1 50.05-4.5 49.55-4.5 49.55-15.15Q49.55-16.55 49.77-17.73 50-18.9 50.4-20L50.4-20 53.6-28.2Q54.15-29.6 54.85-30.55 55.55-31.5 57.25-31.5L57.25-31.5 62.15-31.5Q63.8-31.5 64.47-30.55 65.15-29.6 65.75-28.15L65.75-28.15 69.2-20Q69.6-18.9 69.82-17.73 70.05-16.55 70.05-15.15L70.05-15.15 70.05-4.5ZM55.2-1.8L55.2-1.8 55.2-8.8 64.05-8.8 64.05-1.8Q64.05-0.85 64.52-0.43 65 0 66 0L66 0 73.55 0Q74.5 0 74.92-0.43 75.35-0.85 75.35-1.8L75.35-1.8 75.35-15Q75.35-16.5 74.87-18.45 74.4-20.4 73.4-23L73.4-23 69.05-34.35Q68.75-35.2 68.12-35.6 67.5-36 66.55-36L66.55-36 53.1-36Q52.1-36 51.47-35.6 50.85-35.2 50.55-34.35L50.55-34.35 46.2-23Q45.2-20.4 44.72-18.45 44.25-16.5 44.25-15L44.25-15 44.25-1.8Q44.25-0.85 44.67-0.43 45.1 0 46.05 0L46.05 0 53.4 0Q54.35 0 54.77-0.43 55.2-0.85 55.2-1.8ZM55 0.05L48.5 5.45Q48.3 5.65 47.87 5.8 47.45 5.95 46.95 5.95L46.95 5.95 39.6 5.95Q38.4 5.95 37.85 5.4 37.3 4.85 37.3 3.65L37.3 3.65 37.3-9.55Q37.3-11.1 37.77-13.08 38.25-15.05 39.3-17.75L39.3-17.75 43.6-29.05Q43.75-29.5 43.97-29.83 44.2-30.15 44.45-30.4L44.45-30.4 44.5-30.45 50.9-35.8Q51.3-36.15 51.85-36.33 52.4-36.5 53.1-36.5L53.1-36.5 66.55-36.5Q67.7-36.5 68.42-36.02 69.15-35.55 69.5-34.55L69.5-34.55 73.85-23.2Q74.9-20.5 75.37-18.53 75.85-16.55 75.85-15L75.85-15 75.85-1.8Q75.85-1.15 75.67-0.7 75.5-0.25 75.15 0.05L75.15 0.05 68.65 5.45Q68.45 5.65 68.02 5.8 67.6 5.95 67.1 5.95L67.1 5.95 59.55 5.95Q58.3 5.95 57.7 5.38 57.1 4.8 57.1 3.65L57.1 3.65 57.1-2.85 55.7-2.85 55.7-1.8Q55.7-1.15 55.52-0.7 55.35-0.25 55 0.05L55 0.05ZM96.75 5.95L80.95 5.95Q79.75 5.95 79.2 5.4 78.65 4.85 78.65 3.65L78.65 3.65 78.65-2.2Q78.65-2.85 78.82-3.3 79-3.75 79.35-4.05L79.35-4.05 84.35-8.25Q81.7-9.05 80.17-10.98 78.65-12.9 78.65-16.5L78.65-16.5 78.65-21.75Q78.65-24 79.4-25.75 80.15-27.5 81.55-28.7L81.55-28.7 88.05-34.15Q89.4-35.25 91.4-35.88 93.4-36.5 95.95-36.5L95.95-36.5 109.95-36.5Q111.15-36.5 111.7-35.95 112.25-35.4 112.25-34.2L112.25-34.2 112.25-28.25Q112.25-27.6 112.07-27.15 111.9-26.7 111.55-26.4L111.55-26.4 107.05-22.65Q110.2-21.95 112.12-20.03 114.05-18.1 114.05-14.05L114.05-14.05 114.05-8.8Q114.05-6.55 113.3-4.8 112.55-3.05 111.1-1.85L111.1-1.85 104.65 3.55Q103.25 4.7 101.25 5.33 99.25 5.95 96.75 5.95L96.75 5.95ZM87.4 0L103.2 0Q108 0 110.77-2.27 113.55-4.55 113.55-8.8L113.55-8.8 113.55-14.05Q113.55-18.25 111.4-20.05 109.25-21.85 105.75-22.35L105.75-22.35 98.3-23.35Q97.65-23.4 97.3-23.85 96.95-24.3 96.95-24.95L96.95-24.95Q96.95-25.6 97.3-26.03 97.65-26.45 98.3-26.45L98.3-26.45 109.95-26.45Q110.9-26.45 111.32-26.88 111.75-27.3 111.75-28.25L111.75-28.25 111.75-34.2Q111.75-35.15 111.32-35.58 110.9-36 109.95-36L109.95-36 95.95-36Q91.1-36 88.35-33.73 85.6-31.45 85.6-27.2L85.6-27.2 85.6-21.95Q85.6-17.75 87.72-15.95 89.85-14.15 93.35-13.65L93.35-13.65 100.85-12.6Q101.5-12.55 101.82-12.15 102.15-11.75 102.15-10.9L102.15-10.9Q102.15-10.3 101.82-9.88 101.5-9.45 100.85-9.45L100.85-9.45 87.4-9.45Q86.45-9.45 86.02-9.03 85.6-8.6 85.6-7.65L85.6-7.65 85.6-1.8Q85.6-0.85 86.02-0.43 86.45 0 87.4 0L87.4 0ZM96.15-31.5L107.25-31.5 107.25-31 96.15-31Q94.05-31 92.8-29.85 91.55-28.7 91.55-26.95L91.55-26.95 91.55-22.85Q91.55-21.1 92.25-20.4 92.95-19.7 94.1-19.5L94.1-19.5 104.65-17.35Q106.15-17.05 107.12-16.05 108.1-15.05 108.1-12.45L108.1-12.45 108.1-9.55Q108.1-7.35 106.6-5.93 105.1-4.5 102.55-4.5L102.55-4.5 90.1-4.5 90.1-5 102.55-5Q104.85-5 106.22-6.28 107.6-7.55 107.6-9.55L107.6-9.55 107.6-12.45Q107.6-14.8 106.77-15.68 105.95-16.55 104.55-16.85L104.55-16.85 94-19Q92.7-19.25 91.87-20.03 91.05-20.8 91.05-22.85L91.05-22.85 91.05-26.95Q91.05-28.95 92.45-30.23 93.85-31.5 96.15-31.5L96.15-31.5ZM129.94-17.7L129.94-4.5 129.44-4.5 129.44-31.5 129.94-31.5 129.94-18.2 140.79-18.2 146.54-31.5 147.09-31.5 141.34-18.2 143.39-18.2Q146.44-18.2 147.94-17.05 149.44-15.9 149.44-13.3L149.44-13.3 149.44-4.5 148.94-4.5 148.94-13.3Q148.94-15.7 147.54-16.7 146.14-17.7 143.39-17.7L143.39-17.7 129.94-17.7ZM125.79 0L133.54 0Q134.49 0 134.92-0.43 135.34-0.85 135.34-1.8L135.34-1.8 135.34-13.25 141.94-13.25Q142.74-13.25 143.14-12.8 143.54-12.35 143.54-11.55L143.54-11.55 143.54-1.8Q143.54-0.85 143.97-0.43 144.39 0 145.34 0L145.34 0 153.04 0Q153.99 0 154.42-0.43 154.84-0.85 154.84-1.8L154.84-1.8 154.84-15.9Q154.84-18.9 153.17-20.73 151.49-22.55 148.69-22.7L148.69-22.7 153.79-34.35Q154.14-35.15 153.84-35.58 153.54-36 152.69-36L152.69-36 144.99-36Q144.04-36 143.44-35.63 142.84-35.25 142.49-34.35L142.49-34.35 137.34-22.7 135.34-22.7 135.34-34.2Q135.34-35.15 134.92-35.58 134.49-36 133.54-36L133.54-36 125.79-36Q124.84-36 124.42-35.58 123.99-35.15 123.99-34.2L123.99-34.2 123.99-1.8Q123.99-0.85 124.42-0.43 124.84 0 125.79 0L125.79 0ZM135.14 0.05L135.14 0.05 128.64 5.45Q128.44 5.65 128.02 5.8 127.59 5.95 127.09 5.95L127.09 5.95 119.34 5.95Q118.14 5.95 117.59 5.4 117.04 4.85 117.04 3.65L117.04 3.65 117.04-28.75Q117.04-29.4 117.22-29.85 117.39-30.3 117.74-30.6L117.74-30.6 124.19-36.05Q124.44-36.25 124.87-36.38 125.29-36.5 125.79-36.5L125.79-36.5 133.54-36.5Q134.74-36.5 135.29-35.95 135.84-35.4 135.84-34.2L135.84-34.2 135.84-29.65Q135.99-29.85 136.14-30.08 136.29-30.3 136.49-30.45L136.49-30.45 142.94-35.9Q143.29-36.2 143.82-36.35 144.34-36.5 144.99-36.5L144.99-36.5 152.69-36.5Q153.94-36.5 154.34-35.88 154.74-35.25 154.24-34.15L154.24-34.15 149.44-23.15Q152.14-22.8 153.74-20.85 155.34-18.9 155.34-15.9L155.34-15.9 155.34-1.8Q155.34-1.15 155.17-0.7 154.99-0.25 154.64 0.05L154.64 0.05 148.14 5.45Q147.94 5.65 147.52 5.8 147.09 5.95 146.59 5.95L146.59 5.95 138.89 5.95Q137.69 5.95 137.14 5.4 136.59 4.85 136.59 3.65L136.59 3.65 136.59-6.1Q136.59-6.6 136.39-6.9 136.19-7.2 135.84-7.25L135.84-7.25 135.84-1.8Q135.84-1.15 135.67-0.7 135.49-0.25 135.14 0.05ZM172.19-4.5L171.69-4.5 171.69-31.5 172.19-31.5 172.19-18.25 191.39-18.25 191.39-31.5 191.89-31.5 191.89-4.5 191.39-4.5 191.39-17.75 172.19-17.75 172.19-4.5ZM168.09 0L175.84 0Q176.79 0 177.22-0.43 177.64-0.85 177.64-1.8L177.64-1.8 177.64-12.9 185.99-12.9 185.99-1.8Q185.99-0.85 186.42-0.43 186.84 0 187.79 0L187.79 0 195.54 0Q196.49 0 196.92-0.43 197.34-0.85 197.34-1.8L197.34-1.8 197.34-34.2Q197.34-35.15 196.92-35.58 196.49-36 195.54-36L195.54-36 187.79-36Q186.84-36 186.42-35.58 185.99-35.15 185.99-34.2L185.99-34.2 185.99-23.35 177.64-23.35 177.64-34.2Q177.64-35.15 177.22-35.58 176.79-36 175.84-36L175.84-36 168.09-36Q167.14-36 166.72-35.58 166.29-35.15 166.29-34.2L166.29-34.2 166.29-1.8Q166.29-0.85 166.72-0.43 167.14 0 168.09 0L168.09 0ZM177.44 0.05L177.44 0.05 170.94 5.45Q170.74 5.65 170.32 5.8 169.89 5.95 169.39 5.95L169.39 5.95 161.64 5.95Q160.44 5.95 159.89 5.4 159.34 4.85 159.34 3.65L159.34 3.65 159.34-28.75Q159.34-29.4 159.52-29.85 159.69-30.3 160.04-30.6L160.04-30.6 166.49-36.05Q166.74-36.25 167.17-36.38 167.59-36.5 168.09-36.5L168.09-36.5 175.84-36.5Q177.04-36.5 177.59-35.95 178.14-35.4 178.14-34.2L178.14-34.2 178.14-23.85 179.04-23.85 179.04-28.75Q179.04-29.4 179.22-29.85 179.39-30.3 179.74-30.6L179.74-30.6 186.19-36.05Q186.44-36.25 186.87-36.38 187.29-36.5 187.79-36.5L187.79-36.5 195.54-36.5Q196.74-36.5 197.29-35.95 197.84-35.4 197.84-34.2L197.84-34.2 197.84-1.8Q197.84-1.15 197.67-0.7 197.49-0.25 197.14 0.05L197.14 0.05 190.64 5.45Q190.44 5.65 190.02 5.8 189.59 5.95 189.09 5.95L189.09 5.95 181.34 5.95Q180.14 5.95 179.59 5.4 179.04 4.85 179.04 3.65L179.04 3.65 179.04-6.95 178.14-6.95 178.14-1.8Q178.14-1.15 177.97-0.7 177.79-0.25 177.44 0.05ZM217.99 6.7L217.99 6.7Q213.14 6.7 210.01 5.68 206.89 4.65 205.14 2.95 203.39 1.25 202.71-0.95 202.04-3.15 202.04-5.5L202.04-5.5 202.04-28.75Q202.04-29.4 202.21-29.85 202.39-30.3 202.74-30.6L202.74-30.6 209.19-36.05Q209.44-36.25 209.86-36.38 210.29-36.5 210.79-36.5L210.79-36.5 218.64-36.5Q219.84-36.5 220.39-35.95 220.94-35.4 220.94-34.2L220.94-34.2 220.94-11.4Q220.94-10.95 221.09-10.58 221.24-10.2 221.74-10L221.74-10 221.74-28.75Q221.74-29.4 221.89-29.85 222.04-30.3 222.34-30.55L222.34-30.55 222.39-30.6 228.89-36.05Q229.14-36.25 229.54-36.38 229.94-36.5 230.49-36.5L230.49-36.5 238.09-36.5Q239.29-36.5 239.84-35.95 240.39-35.4 240.39-34.2L240.39-34.2 240.39-9.45Q240.39-7.15 239.74-5.2 239.09-3.25 237.39-1.85L237.39-1.85 230.89 3.55Q229.14 5.05 226.04 5.88 222.94 6.7 217.99 6.7ZM239.89-9.45L239.89-9.45 239.89-34.2Q239.89-35.15 239.46-35.58 239.04-36 238.09-36L238.09-36 230.49-36Q229.54-36 229.11-35.58 228.69-35.15 228.69-34.2L228.69-34.2 228.69-11.4Q228.69-10.4 227.94-9.73 227.19-9.05 224.54-9.05L224.54-9.05Q221.94-9.05 221.19-9.73 220.44-10.4 220.44-11.4L220.44-11.4 220.44-34.2Q220.44-35.15 220.01-35.58 219.59-36 218.64-36L218.64-36 210.79-36Q209.84-36 209.41-35.58 208.99-35.15 208.99-34.2L208.99-34.2 208.99-9.45Q208.99-7.15 209.66-5.28 210.34-3.4 212.06-2.08 213.79-0.75 216.79 0 219.79 0.75 224.44 0.75L224.44 0.75Q229.09 0.75 232.09 0 235.09-0.75 236.81-2.08 238.54-3.4 239.21-5.28 239.89-7.15 239.89-9.45ZM214.49-10.65L214.49-31.5 214.99-31.5 214.99-10.65Q214.99-7.85 216.96-6.13 218.94-4.4 224.49-4.4L224.49-4.4Q230.04-4.4 232.04-6.13 234.04-7.85 234.04-10.65L234.04-10.65 234.04-31.5 234.54-31.5 234.54-10.65Q234.54-7.65 232.44-5.78 230.34-3.9 224.49-3.9L224.49-3.9Q218.64-3.9 216.56-5.78 214.49-7.65 214.49-10.65L214.49-10.65ZM266.09 5.95L246.89 5.95Q245.69 5.95 245.14 5.4 244.59 4.85 244.59 3.65L244.59 3.65 244.59-28.75Q244.59-29.4 244.76-29.85 244.94-30.3 245.29-30.6L245.29-30.6 251.74-36.05Q251.99-36.25 252.41-36.38 252.84-36.5 253.34-36.5L253.34-36.5 269.29-36.5Q274.49-36.5 276.94-34.48 279.39-32.45 279.39-28.35L279.39-28.35 279.39-25.95Q279.39-24.2 278.91-22.95 278.44-21.7 277.49-20.95L277.49-20.95 277.34-20.85Q280.04-20.25 281.39-18.28 282.74-16.3 282.74-12.8L282.74-12.8 282.74-8.2Q282.74-5.95 282.09-4.33 281.44-2.7 280.14-1.6L280.14-1.6 273.69 3.85Q272.44 4.9 270.54 5.43 268.64 5.95 266.09 5.95L266.09 5.95ZM253.34 0L272.54 0Q277.49 0 279.86-2 282.24-4 282.24-8.2L282.24-8.2 282.24-12.8Q282.24-16.45 280.69-18.35 279.14-20.25 275.94-20.55L275.94-20.55Q277.44-21.2 278.16-22.53 278.89-23.85 278.89-25.95L278.89-25.95 278.89-28.35Q278.89-32.25 276.54-34.13 274.19-36 269.29-36L269.29-36 253.34-36Q252.39-36 251.96-35.58 251.54-35.15 251.54-34.2L251.54-34.2 251.54-1.8Q251.54-0.85 251.96-0.43 252.39 0 253.34 0L253.34 0ZM270.54-4.5L270.54-4.5 257.09-4.5 257.09-31.5 267.24-31.5Q269.29-31.5 270.59-31.08 271.89-30.65 272.59-29.93 273.29-29.2 273.54-28.25 273.79-27.3 273.79-26.2L273.79-26.2 273.79-23Q273.79-21.5 273.26-20.25 272.74-19 270.59-18.45L270.59-18.45Q272.64-18.45 273.94-18.03 275.24-17.6 275.94-16.82 276.64-16.05 276.86-15 277.09-13.95 277.09-12.7L277.09-12.7 277.09-9.5Q277.09-8.4 276.84-7.48 276.59-6.55 275.91-5.9 275.24-5.25 273.94-4.88 272.64-4.5 270.54-4.5ZM267.24-31L267.24-31 257.59-31 257.59-18.45 267.24-18.45Q269.29-18.45 270.49-18.82 271.69-19.2 272.31-19.83 272.94-20.45 273.11-21.28 273.29-22.1 273.29-23L273.29-23 273.29-26.2Q273.29-28.2 272.14-29.6 270.99-31 267.24-31ZM262.79-22.1L262.79-27.5 267.04-27.5Q267.99-27.5 268.46-27 268.94-26.5 268.94-25.5L268.94-25.5 268.94-24.1Q268.94-23.1 268.46-22.6 267.99-22.1 267.04-22.1L267.04-22.1 262.79-22.1ZM270.59-17.95L270.59-17.95 257.59-17.95 257.59-5 270.54-5Q274.29-5 275.44-6.23 276.59-7.45 276.59-9.5L276.59-9.5 276.59-12.7Q276.59-14.95 275.46-16.45 274.34-17.95 270.59-17.95ZM262.79-8.5L262.79-14.4 269.29-14.4Q270.24-14.4 270.71-13.93 271.19-13.45 271.19-12.45L271.19-12.45 271.19-10.5Q271.19-9.5 270.71-9 270.24-8.5 269.29-8.5L269.29-8.5 262.79-8.5Z" opacity="1" transform="matrix(1,0,0,1,0,0)" fill="#1ebbd7" class="undefined-text-0" data-fill-palette-color="primary" id="text-0"></path></svg></g></svg></g></svg></g></svg></g><g><svg viewBox="0 0 83.32026119551298 83.57279507343833" height="83.57279507343833" width="83.32026119551298"><g><svg xmlns="http://www.w3.org/2000/svg" xmlns:xlink="http://www.w3.org/1999/xlink" version="1.1" x="0" y="0" viewBox="2.63700008392334 3 94.36299896240234 94.64900207519531" enable-background="new 0 0 100 100" xml:space="preserve" height="83.57279507343833" width="83.32026119551298" class="icon-icon-0" data-fill-palette-color="accent" id="icon-0"><path display="none" d="M62.653 97.752H37.887l-6.651-12.998V61.933L19.721 50.247V25.799l4.909-9.368H13.742V0.103l15.239 7.663v5.382l42.778-0.095V7.663L87 0v16.33H76.108l4.945 9.471v24.458L69.268 61.944v22.807L62.653 97.752zM39.894 94.473h20.747l4.312-8.475H35.558L39.894 94.473zM34.517 82.718h31.47V68.172l-2.67 5.307-2.929-1.475 4.578-9.103h-8.237l-6.344 6.44-6.307-6.44h-8.49l4.756 9.079-2.905 1.521-2.921-5.575V82.718zM34.517 59.623h10.94l4.936 5.038 4.963-5.038h10.631V24.562h10.722l-4.299-8.231-44.076 0.1-4.256 8.122 10.439-0.031V59.623zM69.268 39.394v17.934l8.507-8.437v-9.497H69.268zM23.002 48.902l8.234 8.356v-17.87l-8.234-0.023V48.902zM69.268 36.113h8.507v-8.271h-8.507V36.113zM23.002 36.085l8.234 0.024v-8.295l-8.234 0.025V36.085zM17.022 13.152h8.679V9.787l-8.679-4.363V13.152zM75.041 13.049h8.679V5.321l-8.679 4.364V13.049z" fill="#1ebbd7" data-fill-palette-color="accent"></path><path display="none" d="M67.344 98.334H55.887v-3.312h3.326l-5.066-15.948 3.862-11.865-8.113 8.208-7.747-7.655 3.75 11.317-5.283 15.943h3.538v3.312H32.489v-3.312h4.637l5.283-15.943-5.45-16.445-0.121-0.118H36.63V62.31l-5.797-5.729V43.218l5.797-6.104V13.868L50.339 0l12.794 13.902v23.155L69 42.991v13.095l-5.81 5.907-5.564 17.092 5.063 15.937h4.654V98.334zM39.943 60.925l9.924 9.808 10.08-10.199-0.079-6.75-9.53 10.061L39.943 53.627V60.925zM39.943 48.982l10.311 10.134 9.567-10.1V27.729H39.943V48.982zM34.146 55.196l2.485 2.455V41.924l-2.485 2.616V55.196zM63.134 49.667l0.088 7.554 2.466-2.495V44.353l-2.554-2.583V49.667zM45.486 24.416h8.691l-4.302-2.447L45.486 24.416zM56.146 21.724l3.675 2.089v-2.089H56.146zM39.943 21.724v1.99l3.568-1.99H39.943zM49.89 18.167l4.34 2.468V9.12l-3.978-4.32L45.81 9.294v11.147L49.89 18.167zM57.543 18.411h2.278v-3.217l-2.278-2.474V18.411zM39.943 18.411h2.554v-5.766l-2.554 2.584V18.411z" fill="#1ebbd7" data-fill-palette-color="accent"></path><path display="none" d="M79.359 98H56.263v-3.279h23.097V98zM44.646 98H21.138v-3.279h23.508V98zM68.28 86.246h-35.85L19.498 73.683V49.139L31.45 37.324l-0.205-22.943L43.955 1.375h13.006l12.496 13.014-0.206 22.944L81 49.147v24.526L68.28 86.246zM33.762 82.967h33.169l4.928-4.87v-33.49l-4.693-4.72-16.814 5.725-16.824-5.728-4.788 4.731v33.473L33.762 82.967zM22.778 72.297l2.682 2.604V47.857l-2.682 2.651V72.297zM75.139 47.906v26.949l2.581-2.549V50.5L75.139 47.906zM36.784 37.527l13.567 4.619 13.603-4.632-13.441-9.087L36.784 37.527zM34.65 28.298l0.059 6.669 10.061-6.669H34.65zM56.179 28.298l9.814 6.636 0.059-6.636H56.179zM36.787 13.403h9.498v13.89l4.246-2.813 4.092 2.766V13.403h9.34l-8.4-8.748H45.335L36.787 13.403zM57.902 25.018h8.179l0.075-8.335h-8.254V25.018zM34.621 25.018h8.384v-8.335h-8.459L34.621 25.018z" fill="#1ebbd7" data-fill-palette-color="accent"></path><path display="none" d="M68.306 98H32.129L7.786 73.731V25.512l12.242-13.139h25.149l5.202 5.504 5.081-5.504h24.724L93 25.489v48.25L68.306 98zM34.467 94.69h31.506v-3.157l-15.586-5.3-15.92 5.307V94.69zM69.283 91.039V92.4l20.407-20.05V26.837L78.791 15.683H56.909l-6.502 7.042-6.656-7.042H21.468L11.095 26.814v45.543l20.063 20.002v-1.298l-6.205-5.86V59.996l9.423-3.154H19.093V41.949h15.375v14.862l6.988-2.34-0.951-0.939h19.776l-0.95 0.939 6.54 2.189V41.949h15.374v14.893H66.41l8.803 2.946V85.18L69.283 91.039zM28.262 83.774l4.966 4.69 15.51-5.169V61.67l-4.645-4.591-15.831 5.298V83.774zM52.048 83.303l15.146 5.149 4.71-4.655V62.169l-15.211-5.09-4.645 4.591V83.303zM48.561 56.842l1.833 1.81 1.832-1.81H48.561zM69.181 53.532h8.755v-8.274h-8.755V53.532zM22.402 53.532h8.756v-8.274h-8.756V53.532zM90.162 15.461L78.304 3.326l2.367-2.312 11.858 12.135L90.162 15.461zM10.639 15.169l-2.396-2.283L19.55 1.028l2.395 2.284L10.639 15.169z" fill="#1ebbd7" data-fill-palette-color="accent"></path><path d="M70.034 97.649H29.229l-14.072-27.5v-12.53L2.637 44.563v-28.68h14.01L49.825 3l32.561 12.884H97v28.669L83.869 58.523v11.619L70.034 97.649zM32.183 93.985h34.89v-9.467h-34.89V93.985zM18.822 69.266l9.696 18.948V57.323l-6.643-13.058v-14.41l14.532-14.364 13.217 6.589 13.133-6.586 14.774 14.352v14.428l-6.795 13.057v30.766l9.467-18.823V18.961L49.812 6.937 18.822 18.97V69.266zM32.183 80.854h34.89V58.202l-17.556-5.875-17.334 5.869V80.854zM49.51 48.46l18.493 6.188 5.864-11.271V31.395L62.073 19.938l-12.443 6.24L37.119 19.94 25.541 31.386v12l5.724 11.252L49.51 48.46zM83.869 19.548v33.624l9.467-10.071V19.548H83.869zM6.301 43.09l8.856 9.234V19.548H6.301V43.09zM41.938 70.985l-6.451-6.644 2.629-2.554 6.451 6.644L41.938 70.985zM57.568 70.96l-2.674-2.505 6.222-6.643 2.675 2.506L57.568 70.96zM45.085 45.658H28.518v-16.87h16.567V45.658zM32.183 41.994h9.238v-9.542h-9.238V41.994zM70.737 45.602H54.17V28.731h16.567V45.602zM57.835 41.937h9.237v-9.541h-9.237V41.937z" fill="#1ebbd7" data-fill-palette-color="accent"></path></svg></g></svg></g></svg></g><defs></defs></svg><rect width="395.52" height="67.03227960318384" fill="none" stroke="none" visibility="hidden"></rect></g></svg></g></svg>